<svg width="47" height="40" viewBox="0 0 47 40" fill="none" xmlns="http://www.w3.org/2000/svg">
<g filter="url(#filter0_dd_28717_1193)">
<g clip-path="url(#clip0_28717_1193)">
<path d="M40.269 1.02583C41.2447 1.02583 42.0356 1.8142 42.0356 2.7867V29.207C42.0356 30.1795 41.2447 30.9679 40.269 30.9679H33.177L33.1806 30.9827C32.798 30.9779 32.4272 30.8492 32.1244 30.6158L14.915 17.8274C14.4618 17.4884 14.1979 16.9542 14.2045 16.3894V15.6557C14.2039 14.9933 14.5761 14.3865 15.168 14.0853C15.7599 13.7842 16.4713 13.8395 17.0091 14.2287L33.3868 26.0595C33.6892 26.2763 34.0521 26.393 34.4246 26.3934H35.6722C36.1411 26.3943 36.591 26.2092 36.9224 25.8787C37.254 25.5483 37.4398 25.0998 37.4388 24.6325V7.36496C37.4398 6.89765 37.254 6.4492 36.9224 6.11876C36.591 5.78832 36.1411 5.60311 35.6722 5.6041H34.3546C33.8859 5.60507 33.4359 5.41986 33.1044 5.08942C32.773 4.75899 32.5871 4.31054 32.5881 3.84322V2.7867C32.5881 1.8142 33.379 1.02583 34.3546 1.02583H40.269ZM13.8587 1.00015C14.2414 1.00464 14.6123 1.13343 14.915 1.367L32.1244 14.159C32.5766 14.4965 32.8382 15.0303 32.8273 15.5934V16.327C32.8271 16.9882 32.4554 17.5935 31.8648 17.8944C31.2742 18.1953 30.5643 18.1412 30.0265 17.754L13.6563 5.93426C13.355 5.7149 12.9915 5.59671 12.6184 5.59676H11.3597C10.8906 5.59676 10.4407 5.78277 10.1093 6.1138C9.77785 6.44482 9.59216 6.89365 9.59313 7.3613V24.6178C9.59313 25.5903 10.3841 26.3787 11.3597 26.3787H12.692C13.1608 26.3777 13.6107 26.5629 13.9423 26.8934C14.2738 27.2238 14.4596 27.6723 14.4586 28.1395V29.1998C14.4596 29.6697 14.2718 30.1203 13.9371 30.4512C13.6024 30.782 13.1487 30.9655 12.6773 30.9607H6.76661C5.79095 30.9607 5.00002 30.1723 5.00002 29.1998V2.7867C4.99807 2.31842 5.18333 1.86865 5.51484 1.53683C5.84635 1.20502 6.2968 1.01849 6.76661 1.0185H13.8587V1.00015Z" fill="#FAFAFA"/>
<path d="M42.0356 2.78655C42.0356 1.81405 41.2447 1.02568 40.269 1.02568H34.3546C33.379 1.02568 32.5881 1.81405 32.5881 2.78655V3.84307C32.5871 4.31039 32.773 4.75884 33.1044 5.08927C33.4359 5.41971 33.8859 5.60491 34.3546 5.60394H35.6722C36.1411 5.60296 36.591 5.78817 36.9224 6.11861C37.254 6.44905 37.4398 6.8975 37.4388 7.36481V24.6323C37.4398 25.0997 37.254 25.5482 36.9224 25.8785C36.591 26.209 36.1411 26.3942 35.6722 26.3932H34.4246C34.0521 26.3928 33.6892 26.276 33.3868 26.0594L17.0091 14.2285C16.4713 13.8394 15.7599 13.7839 15.168 14.0852C14.5761 14.3863 14.2039 14.9932 14.2045 15.6555V16.3893C14.1979 16.954 14.4618 17.4882 14.915 17.8273L32.1244 30.6157C32.4272 30.8489 32.798 30.9778 33.1806 30.9825L33.177 30.9678H40.269C41.2447 30.9678 42.0356 30.1794 42.0356 29.2069V2.78655Z" fill="#6366F1"/>
<path d="M14.915 1.36685C14.6123 1.13328 14.2414 1.00448 13.8587 1V1.01834H6.76661C6.2968 1.01834 5.84635 1.20486 5.51484 1.53668C5.18333 1.8685 4.99807 2.31827 5.00002 2.78655V29.1995C5.00002 30.172 5.79095 30.9605 6.76661 30.9605H12.6773C13.1487 30.9654 13.6024 30.7819 13.9371 30.451C14.2718 30.1202 14.4596 29.6694 14.4586 29.1995V28.1394C14.4596 27.672 14.2738 27.2237 13.9423 26.8932C13.6107 26.5628 13.1608 26.3775 12.692 26.3785H11.3597C10.3841 26.3785 9.59313 25.5902 9.59313 24.6177V7.36114C9.59216 6.8935 9.77785 6.44467 10.1093 6.11365C10.4407 5.78262 10.8906 5.5966 11.3597 5.5966H12.6184C12.9915 5.59655 13.355 5.71475 13.6563 5.9341L30.0265 17.7539C30.5643 18.141 31.2742 18.1952 31.8648 17.8943C32.4554 17.5933 32.8271 16.988 32.8273 16.3269V15.5932C32.8382 15.0302 32.5766 14.4964 32.1244 14.1588L14.915 1.36685Z" fill="#6366F1"/>
</g>
</g>
<defs>
<filter id="filter0_dd_28717_1193" x="-0.0367556" y="-0.00671387" width="47" height="40" filterUnits="userSpaceOnUse" color-interpolation-filters="sRGB">
<feFlood flood-opacity="0" result="BackgroundImageFix"/>
<feColorMatrix in="SourceAlpha" type="matrix" values="0 0 0 0 0 0 0 0 0 0 0 0 0 0 0 0 0 0 127 0" result="hardAlpha"/>
<feMorphology radius="1" operator="erode" in="SourceAlpha" result="effect1_dropShadow_28717_1193"/>
<feOffset dy="2"/>
<feGaussianBlur stdDeviation="2"/>
<feColorMatrix type="matrix" values="0 0 0 0 0.152941 0 0 0 0 0.176471 0 0 0 0 0.203922 0 0 0 0.06 0"/>
<feBlend mode="multiply" in2="BackgroundImageFix" result="effect1_dropShadow_28717_1193"/>
<feColorMatrix in="SourceAlpha" type="matrix" values="0 0 0 0 0 0 0 0 0 0 0 0 0 0 0 0 0 0 127 0" result="hardAlpha"/>
<feMorphology radius="1" operator="erode" in="SourceAlpha" result="effect2_dropShadow_28717_1193"/>
<feOffset dy="4"/>
<feGaussianBlur stdDeviation="3"/>
<feColorMatrix type="matrix" values="0 0 0 0 0.152941 0 0 0 0 0.176471 0 0 0 0 0.203922 0 0 0 0.1 0"/>
<feBlend mode="multiply" in2="effect1_dropShadow_28717_1193" result="effect2_dropShadow_28717_1193"/>
<feBlend mode="normal" in="SourceGraphic" in2="effect2_dropShadow_28717_1193" result="shape"/>
</filter>
<clipPath id="clip0_28717_1193">
<rect width="37" height="30" fill="white" transform="translate(4.96324 0.993286)"/>
</clipPath>
</defs>
</svg>
