<svg width="24" height="24" viewBox="0 0 24 24" fill="none" xmlns="http://www.w3.org/2000/svg">
<path fill-rule="evenodd" clip-rule="evenodd" d="M11 4L10 4V2L14 2V4H13V4.05493C14.7359 4.24682 16.3229 4.93238 17.6177 5.9681L18.6569 4.92893L20.0711 6.34314L19.0319 7.38231C20.2635 8.92198 21 10.875 21 13C21 17.9706 16.9706 22 12 22C7.02943 22 3 17.9706 3 13C3 8.36744 6.50004 4.55237 11 4.05493V4ZM19 13C19 9.134 15.866 6 12 6C8.134 6 5 9.134 5 13C5 16.866 8.134 20 12 20C15.866 20 19 16.866 19 13ZM11 12V9L13 9V14L8 14V12L11 12Z" fill="currentColor"/>
</svg>
