<svg width="24" height="24" viewBox="0 0 24 24" fill="none" xmlns="http://www.w3.org/2000/svg">
<path d="M14 12C14 13.1046 13.1046 14 12 14C10.8954 14 10 13.1046 10 12C10 10.8954 10.8954 10 12 10C13.1046 10 14 10.8954 14 12Z" fill="currentColor"/>
<path fill-rule="evenodd" clip-rule="evenodd" d="M11 2L13 2L13.7291 4.18736C14.6571 4.39182 15.5247 4.75742 16.301 5.25332L18.364 4.22183L19.7782 5.63604L18.7467 7.69903C19.2426 8.47531 19.6082 9.34287 19.8126 10.2709L22 11V13L19.8126 13.7291C19.6082 14.6571 19.2426 15.5247 18.7467 16.301L19.7782 18.364L18.364 19.7782L16.301 18.7467C15.5247 19.2426 14.6571 19.6082 13.7291 19.8126L13 22H11L10.2709 19.8126C9.34286 19.6082 8.4753 19.2426 7.69903 18.7467L5.63604 19.7782L4.22183 18.364L5.25332 16.301C4.75742 15.5247 4.39182 14.6571 4.18736 13.7291L2 13L2 11L4.18736 10.2709C4.39182 9.34286 4.75742 8.4753 5.25332 7.69903L4.22183 5.63604L5.63604 4.22183L7.69903 5.25332C8.4753 4.75742 9.34286 4.39182 10.2709 4.18736L11 2ZM12 18C15.3137 18 18 15.3137 18 12C18 8.68629 15.3137 6 12 6C8.68629 6 6 8.68629 6 12C6 15.3137 8.68629 18 12 18Z" fill="currentColor"/>
</svg>
