<svg width="24" height="24" viewBox="0 0 24 24" fill="none" xmlns="http://www.w3.org/2000/svg">
<path fill-rule="evenodd" clip-rule="evenodd" d="M15.8293 16.0001C15.9178 16.2503 15.9739 16.5157 15.9929 16.7914L16 17L16 22H14L14 17C14 16.4872 13.614 16.0645 13.1166 16.0067L13 16L5 16C4.48716 16 4.06449 16.386 4.00673 16.8834L4 17L4 22H2L2 17C2 15.4023 3.24892 14.0963 4.82373 14.0051L5 14L19 14C20.5977 14 21.9037 15.2489 21.9949 16.8237L22 17V22H20V17C20 16.4872 19.614 16.0645 19.1166 16.0067L19 16L18.8293 16.0001C18.9178 16.2503 18.9739 16.5157 18.9929 16.7914L19 17V22H17L17 17C17 16.4872 16.614 16.0645 16.1166 16.0067L16 16L15.8293 16.0001ZM15 2C17.7614 2 20 4.23858 20 7C20 9.76142 17.7614 12 15 12C14.4777 12 13.9741 11.9199 13.5008 11.7713C13.0275 11.9197 12.5231 12 12 12C11.4777 12 10.974 11.9199 10.5007 11.7713C10.0275 11.9197 9.52314 12 9 12C6.23858 12 4 9.76142 4 7C4 4.23858 6.23858 2 9 2C9.53352 2 10.0475 2.08356 10.5296 2.23832C11.0034 2.08717 11.5032 2 12 2C12.5231 2 13.0275 2.08034 13.5015 2.22936C13.9742 2.08006 14.4778 2 15 2ZM9 4C7.34315 4 6 5.34315 6 7C6 8.65685 7.34315 10 9 10C10.6569 10 12 8.65685 12 7C12 5.34315 10.6569 4 9 4ZM13.1667 4.23534L13.1742 4.2466C13.6961 5.03623 14 5.98263 14 7C14 8.02215 13.6933 8.97267 13.1669 9.76453C14.244 9.30947 15 8.24302 15 7C15 5.75698 14.244 4.69053 13.1667 4.23534ZM16.1667 4.23534L16.1742 4.2466C16.6961 5.03623 17 5.98263 17 7C17 8.02215 16.6933 8.97267 16.1669 9.76453C17.244 9.30947 18 8.24302 18 7C18 5.75698 17.244 4.69053 16.1667 4.23534Z" fill="currentColor"/>
</svg>
