<svg width="24" height="24" viewBox="0 0 24 24" fill="none" xmlns="http://www.w3.org/2000/svg">
<path d="M17.6569 17.6569C20.781 14.5327 20.781 9.46736 17.6569 6.34317L19.0711 4.92896C22.9763 8.8342 22.9763 15.1658 19.0711 19.0711L17.6569 17.6569Z" fill="currentColor"/>
<path d="M6.34315 6.34317C3.21895 9.46736 3.21895 14.5327 6.34315 17.6569L4.92893 19.0711C1.02369 15.1658 1.02369 8.8342 4.92893 4.92896L6.34315 6.34317Z" fill="currentColor"/>
<path d="M14.8284 9.1716C16.3905 10.7337 16.3905 13.2664 14.8284 14.8285L16.2426 16.2427C18.5858 13.8995 18.5858 10.1005 16.2426 7.75739L14.8284 9.1716Z" fill="currentColor"/>
<path d="M9.17157 14.8285C7.60948 13.2664 7.60948 10.7337 9.17157 9.1716L7.75736 7.75739C5.41421 10.1005 5.41421 13.8995 7.75736 16.2427L9.17157 14.8285Z" fill="currentColor"/>
<path d="M11 13.7324C10.4022 13.3866 10 12.7403 10 12C10 10.8954 10.8954 10 12 10C13.1046 10 14 10.8954 14 12C14 12.7403 13.5978 13.3866 13 13.7324V19H11V13.7324Z" fill="currentColor"/>
</svg>
