<svg width="20" height="20" viewBox="0 0 18 18" fill="none" xmlns="http://www.w3.org/2000/svg">
<path fill-rule="evenodd" clip-rule="evenodd" d="M 7.9535 14.3171 C 4.4389 14.3171 1.5898 11.468 1.5898 7.9535 C 1.5898 4.4389 4.4389 1.5898 7.9535 1.5898 C 11.468 1.5898 14.3171 4.4389 14.3171 7.9535 C 14.3171 9.424 13.8183 10.7781 12.9806 11.8557 L 16 15 L 15 16 L 11.8557 12.9806 C 10.7781 13.8183 9.424 14.3171 7.9535 14.3171 Z M 7.9535 12.7262 C 10.5894 12.7262 12.7262 10.5894 12.7262 7.9535 C 12.7262 5.3176 10.5894 3.1808 7.9535 3.1808 C 5.3176 3.1808 3.1808 5.3176 3.1808 7.9535 C 3.1808 10.5894 5.3176 12.7262 7.9535 12.7262 Z" fill="currentColor"/>
</svg>
